# Blender v2.83.20 OBJ File: ''
# www.blender.org
mtllib Cube.mtl
o Cube_Cube.001
v -1.000000 1.000000 1.000000
v -1.000000 -1.000000 -1.000000
v -1.000000 -1.000000 1.000000
v -1.000000 1.000000 -1.000000
v 1.000000 -1.000000 -1.000000
v 1.000000 1.000000 -1.000000
v 1.000000 -1.000000 1.000000
v 1.000000 1.000000 1.000000
vt 0.601452 0.094190
vt 0.398548 0.297095
vt 0.398548 0.094190
vt 0.601452 0.297095
vt 0.398548 0.500000
vt 0.601452 0.500000
vt 0.398548 0.702905
vt 0.601452 0.702905
vt 0.398548 0.905810
vt 0.195643 0.702905
vt 0.195643 0.500000
vt 0.804357 0.500000
vt 0.601452 0.905810
vt 0.804357 0.702905
vn -1.0000 -0.0000 0.0000
vn 0.0000 0.0000 -1.0000
vn 1.0000 -0.0000 0.0000
vn 0.0000 -0.0000 1.0000
vn 0.0000 -1.0000 -0.0000
vn 0.0000 1.0000 0.0000
usemtl None
s 1
f 1/1/1 2/2/1 3/3/1
f 4/4/2 5/5/2 2/2/2
f 6/6/3 7/7/3 5/5/3
f 8/8/4 3/9/4 7/7/4
f 5/5/5 3/10/5 2/11/5
f 4/12/6 8/8/6 6/6/6
f 1/1/1 4/4/1 2/2/1
f 4/4/2 6/6/2 5/5/2
f 6/6/3 8/8/3 7/7/3
f 8/8/4 1/13/4 3/9/4
f 5/5/5 7/7/5 3/10/5
f 4/12/6 1/14/6 8/8/6
